<svg viewBox="0 0 512 512" xml:space="preserve" xmlns="http://www.w3.org/2000/svg" enable-background="new 0 0 512 512"><path d="M110.163 252.806c-15.669-18.493-24.039-44.673-24.136-77.765 0-97.714 73.188-149.004 162.728-149.004 95.961-1.557 152.604 47.69 179.37 68.712l-49.149 70.172-36.303-23.943 26.181-37.566c-35.524-23.359-77.276-35.524-119.71-34.844-49.344-.779-108.713 26.473-108.713 74.162 0 18.199 10.901 20.146 27.835 15.182 22.677-5.159 40.779.583 54.307 13.626 25.695 23.65 22.58 65.791-.681 89.442-28.418 28.711-82.921 26.57-111.729-8.174zm309.201 5.741c-15.085-18.297-37.86-28.613-61.509-27.834-37.08-1.947-69.198 27.25-68.614 65.404-.681 16.35 5.84 32.115 17.908 43.113 13.723 13.528 32.116 19.175 54.793 14.015 16.936-4.963 27.836-3.016 27.836 15.184 0 4.184-.487 8.272-1.361 12.359-16.255 39.807-57.909 62.678-118.155 62.678-50.51.196-99.66-15.96-140.244-46.034l32.799-38.346-34.648-26.669-59.173 69.881 14.988 13.431a277.08 277.08 0 0 0 185.599 70.27c50.026 0 91.877-10.219 130.028-42.921 55.569-50.027 52.748-145.211 19.753-184.531z" fill="#1e7b85" class="fill-00858e"></path></svg>