<svg viewBox="0 0 144 44" xmlns="http://www.w3.org/2000/svg" xmlns:xlink="http://www.w3.org/1999/xlink"><linearGradient id="a" gradientUnits="userSpaceOnUse" x1="22.95" x2="22.95" y1="6.76" y2="34.99"><stop offset=".09" stop-color="#fbad1b"/><stop offset="1" stop-color="#f47423"/></linearGradient><path d="m4.43 0h135.14a4.41 4.41 0 0 1 4.43 4.4v35.2a4.41 4.41 0 0 1 -4.43 4.4h-135.14a4.41 4.41 0 0 1 -4.43-4.4v-35.2a4.41 4.41 0 0 1 4.43-4.4z" fill-rule="evenodd"/><path d="m15.54 7.56h2.98v15.94l6.61-6.62 4.05.16-8.16 8.15 9.34 10.64h-3.96l-7.88-8.99v8.99h-2.98z" fill="url(#a)" fill-rule="evenodd"/><g fill="#fff"><path d="m47.38 35.83-4.6-5.71h-.05v5.71h-2.14v-17h2.14v9.63h.05l4-4h2.65l-4.89 4.72 5.46 6.65zm4.79-16a1.32 1.32 0 0 1 .42 1 1.36 1.36 0 0 1 -.42 1 1.41 1.41 0 1 1 -2-2 1.37 1.37 0 0 1 1-.42 1.42 1.42 0 0 1 1 .45zm-2.06 16v-11.39h2.14v11.39zm11.25 0v-6.91a8.39 8.39 0 0 0 -.06-1 2.85 2.85 0 0 0 -.3-.92 1.66 1.66 0 0 0 -.56-.67 1.81 1.81 0 0 0 -1-.25 3.43 3.43 0 0 0 -1.79.51 10 10 0 0 0 -1.52 1.08v8.14h-2.13v-11.37h1.81l.26 1.3a12.2 12.2 0 0 1 1.93-1.16 5 5 0 0 1 2.13-.43 3.46 3.46 0 0 1 1.22.22 2.78 2.78 0 0 1 1.08.71 3.58 3.58 0 0 1 .77 1.26 5.38 5.38 0 0 1 .29 1.86v7.63zm11.25 0a9.28 9.28 0 0 1 -2.29.25 7.26 7.26 0 0 1 -2.32-.37 5.32 5.32 0 0 1 -1.9-1.08 5.24 5.24 0 0 1 -1.28-1.81 6.08 6.08 0 0 1 -.49-2.55 6.55 6.55 0 0 1 .46-2.45 6 6 0 0 1 1.28-1.94 5.81 5.81 0 0 1 1.93-1.27 6 6 0 0 1 2.38-.46 8.72 8.72 0 0 1 1 .05 7.37 7.37 0 0 1 .75.12v-5.54h2.14v16.45a7.21 7.21 0 0 1 -1.61.59zm-.53-9.65a4.27 4.27 0 0 0 -.68-.18 5.65 5.65 0 0 0 -.94-.06 4.17 4.17 0 0 0 -1.54.29 3.67 3.67 0 0 0 -1.26.84 3.73 3.73 0 0 0 -.86 1.33 4.62 4.62 0 0 0 -.31 1.75 4.34 4.34 0 0 0 1 3 3.91 3.91 0 0 0 3.09 1.17 4.25 4.25 0 0 0 .8-.07 3 3 0 0 0 .67-.19v-7.89zm6.65 9.82a3.68 3.68 0 0 1 -.87.09 2.08 2.08 0 0 1 -1.71-.63 2.5 2.5 0 0 1 -.51-1.61v-15h2.15v14.05a1.64 1.64 0 0 0 .2 1 .85.85 0 0 0 .69.26h.32a2 2 0 0 0 .4-.09l.27 1.57a4.15 4.15 0 0 1 -.89.36zm3-5.37a4.17 4.17 0 0 0 .27 1.37 3.58 3.58 0 0 0 .7 1.17 3.21 3.21 0 0 0 1.12.79 3.67 3.67 0 0 0 1.53.29 4.61 4.61 0 0 0 1.47-.23 6.44 6.44 0 0 0 1.3-.56l.6 1.41a5.72 5.72 0 0 1 -1.75.86 7.15 7.15 0 0 1 -2 .31 5.5 5.5 0 0 1 -2.42-.5 5 5 0 0 1 -1.69-1.34 5.59 5.59 0 0 1 -1-1.93 7.94 7.94 0 0 1 -.33-2.3 7.33 7.33 0 0 1 .34-2.29 5.68 5.68 0 0 1 1-1.86 4.68 4.68 0 0 1 1.53-1.24 4.36 4.36 0 0 1 2-.44 4.57 4.57 0 0 1 2 .42 4.2 4.2 0 0 1 1.49 1.19 5.28 5.28 0 0 1 .93 1.85 8.68 8.68 0 0 1 .18 2.45v.56zm4.88-2.79a3.21 3.21 0 0 0 -.46-1 2.35 2.35 0 0 0 -.77-.7 2.15 2.15 0 0 0 -1.09-.27 2.36 2.36 0 0 0 -1.08.25 2.42 2.42 0 0 0 -.8.66 2.92 2.92 0 0 0 -.52 1 3.85 3.85 0 0 0 -.18 1.16h5.06a4.12 4.12 0 0 0 -.18-1.12z"/><path d="m100 20.85a3.09 3.09 0 0 0 -1.4-.31q-1.47 0-1.47 1.83v2.07h3l-.68 1.73h-2.36v9.66h-2.15v-9.66h-1.49v-1.73h1.49v-1.89a4.59 4.59 0 0 1 .35-1.91 3 3 0 0 1 2-1.73 5.13 5.13 0 0 1 1.18-.16 5.26 5.26 0 0 1 .91.1 3.73 3.73 0 0 1 1 .34z"/><path d="m103.51 19.86a1.34 1.34 0 0 1 .42 1 1.43 1.43 0 0 1 -1.42 1.42 1.4 1.4 0 0 1 -1.42-1.42 1.4 1.4 0 0 1 .41-1 1.35 1.35 0 0 1 1-.42 1.39 1.39 0 0 1 1.01.42zm-2.06 16v-11.42h2.14v11.39z"/><path d="m111.2 26.51a2.32 2.32 0 0 0 -1.13-.26 2.5 2.5 0 0 0 -1.17.31 6.9 6.9 0 0 0 -1.29.94v8.33h-2.14v-11.39h1.78l.29 1.28a6.59 6.59 0 0 1 1.79-1.27 3.52 3.52 0 0 1 1.34-.3 2.47 2.47 0 0 1 .81.12 2.53 2.53 0 0 1 .57.27l-.85 2z"/><path d="m113.84 30.61a4 4 0 0 0 .25 1.43 3.55 3.55 0 0 0 .69 1.17 3.21 3.21 0 0 0 1.12.79 3.73 3.73 0 0 0 1.53.29 4.61 4.61 0 0 0 1.47-.23 6.54 6.54 0 0 0 1.31-.56l.6 1.41a5.89 5.89 0 0 1 -1.76.86 7.13 7.13 0 0 1 -2 .31 5.55 5.55 0 0 1 -2.43-.5 4.84 4.84 0 0 1 -1.68-1.34 5.79 5.79 0 0 1 -1-1.93 7.94 7.94 0 0 1 -.33-2.3 7.63 7.63 0 0 1 .34-2.29 5.69 5.69 0 0 1 1-1.86 4.48 4.48 0 0 1 1.53-1.24 4.29 4.29 0 0 1 2-.44 4.57 4.57 0 0 1 2 .42 4.2 4.2 0 0 1 1.49 1.19 5.28 5.28 0 0 1 .93 1.85 8.68 8.68 0 0 1 .31 2.41v.56zm4.88-2.79a3.19 3.19 0 0 0 -.45-1 2.28 2.28 0 0 0 -.78-.7 2.12 2.12 0 0 0 -1.09-.27 2.31 2.31 0 0 0 -1.07.25 2.36 2.36 0 0 0 -.81.66 2.92 2.92 0 0 0 -.52 1 3.85 3.85 0 0 0 -.18 1.16h5.06a3.8 3.8 0 0 0 -.16-1.1z"/><text font-family="FuturaStd-Heavy, Futura Std" font-size="9" font-weight="800" transform="translate(39.59 15.05)">GET IT ON</text></g></svg>